<svg width="32" height="32" viewBox="0 0 32 32" fill="none" xmlns="http://www.w3.org/2000/svg">
  <defs>
    <linearGradient id="grad" x1="0%" y1="0%" x2="100%" y2="100%">
      <stop offset="0%" style="stop-color:#4F46E5;stop-opacity:1" />
      <stop offset="100%" style="stop-color:#7C3AED;stop-opacity:1" />
    </linearGradient>
  </defs>
  <rect width="32" height="32" rx="8" fill="url(#grad)"/>
  <path d="M12 8A2 2 0 0 1 14 6h4a2 2 0 0 1 2 2v12a2 2 0 0 1-4 0V8H12z" fill="white" opacity="0.9"/>
  <path d="M8 12a2 2 0 0 1 2-2h12a2 2 0 0 1 2 2v4a2 2 0 0 1-2 2H10a2 2 0 0 1-2-2v-4z" fill="white" opacity="0.9"/>
  <circle cx="16" cy="16" r="2" fill="white" opacity="0.8"/>
  <circle cx="8" cy="8" r="1" fill="white" opacity="0.6"/>
  <circle cx="24" cy="8" r="1" fill="white" opacity="0.6"/>
  <circle cx="8" cy="24" r="1" fill="white" opacity="0.6"/>
  <circle cx="24" cy="24" r="1" fill="white" opacity="0.6"/>
</svg> 